<svg width="437" height="184" viewBox="0 0 437 184" fill="none" xmlns="http://www.w3.org/2000/svg">
<path d="M202.289 75.9389C183.146 56.7983 154.998 16.2656 113.341 11.7616C76.2488 7.75102 45.4782 19.6638 25.517 45.5391C0.00275955 78.6128 10.8826 128.857 36.7787 152.501C62.6748 176.146 122.346 178.398 154.998 152.501C187.649 126.605 231.642 75.9525 260.836 45.5391C287.856 17.3914 314.88 11.7618 347.532 11.7616C380.184 11.7613 405.876 36.4554 418.465 60.176C439.003 98.8753 416.587 148.438 380.184 166.012C347.532 181.775 296.863 175.02 238.318 117.598" stroke="#DE3163" stroke-width="20.2665"/>
<path d="M126.85 53.4207V129.983" stroke="#2977F5" stroke-width="20.2665"/>
<circle cx="126.85" cy="53.4208" r="18.0147" fill="#2977F5"/>
<circle cx="126.85" cy="129.983" r="18.0147" fill="#2977F5"/>
<path d="M309.248 53.4207V129.983" stroke="#2977F5" stroke-width="20.2665"/>
<circle cx="309.248" cy="53.4208" r="18.0147" fill="#2977F5"/>
<circle cx="309.249" cy="129.983" r="18.0147" fill="#2977F5"/>
<path d="M365.544 69.1836V120.976" stroke="#2977F5" stroke-width="20.2665"/>
<circle cx="365.544" cy="69.1836" r="18.0147" fill="#2977F5"/>
<circle cx="365.544" cy="120.976" r="18.0147" fill="#2977F5"/>
<path d="M70.5532 69.1836V120.976" stroke="#2977F5" stroke-width="20.2665"/>
<circle cx="70.5533" cy="69.1836" r="18.0147" fill="#2977F5"/>
<circle cx="70.5533" cy="120.976" r="18.0147" fill="#2977F5"/>
</svg>
